<?xml version="1.0" encoding="UTF-8" ?>
<!DOCTYPE svg PUBLIC "-//W3C//DTD SVG 1.1//EN" "http://www.w3.org/Graphics/SVG/1.1/DTD/svg11.dtd">
<svg width="210pt" height="268pt" viewBox="0 0 803 1024" version="1.1" xmlns="http://www.w3.org/2000/svg">
<g id="O00000ff">
<path fill="#000000" opacity="1.00" d=" M 401.27 2.46 C 406.31 9.53 410.64 17.13 415.91 24.07 C 445.97 65.89 485.85 100.52 531.23 124.82 C 570.16 145.72 613.12 159.04 657.03 163.94 C 704.73 169.36 753.48 164.89 799.46 151.13 C 801.89 179.76 802.98 208.49 803.00 237.22 L 803.00 237.79 C 802.48 303.06 795.53 368.27 782.04 432.13 C 541.70 432.12 301.36 432.13 61.02 432.13 C 47.73 431.90 34.39 432.58 21.13 431.78 C 21.04 432.23 20.86 433.15 20.78 433.61 C 20.58 433.49 20.19 433.25 20.00 433.13 C 20.70 431.39 19.97 429.62 19.69 427.89 C 7.37 368.65 0.94 308.22 0.00 247.73 L 0.00 220.23 C 0.55 197.19 1.64 174.16 3.65 151.19 C 10.75 153.06 17.79 155.17 24.95 156.79 C 91.23 172.42 162.06 168.52 226.08 145.23 C 298.32 119.22 361.60 68.32 401.27 2.46 M 334.44 185.62 C 321.49 188.38 308.31 190.43 295.03 190.24 C 280.96 190.07 266.58 188.84 253.41 183.53 C 253.40 240.34 253.40 297.15 253.41 353.96 C 260.96 357.59 269.31 359.14 277.57 360.17 C 292.34 361.72 307.36 361.52 322.00 358.81 C 338.28 356.16 354.31 351.10 370.96 351.45 C 380.87 351.53 391.14 354.07 398.86 360.56 C 398.82 304.44 398.85 248.32 398.84 192.20 C 393.54 185.00 384.55 181.65 375.91 180.82 C 361.91 179.54 348.07 182.82 334.44 185.62 M 404.23 192.23 C 404.23 248.22 404.22 304.20 404.24 360.19 C 409.90 356.42 416.10 353.26 422.92 352.29 C 442.37 349.12 461.47 355.53 480.46 358.69 C 495.28 361.49 510.50 361.75 525.48 360.18 C 533.78 359.14 542.20 357.62 549.78 353.93 C 549.70 297.10 549.91 240.27 549.68 183.45 C 533.33 190.02 515.27 190.63 497.88 189.91 C 475.95 188.95 455.03 180.60 433.03 180.47 C 422.50 180.40 410.78 183.33 404.23 192.23 M 237.91 205.69 C 237.98 262.36 237.73 319.04 238.03 375.71 C 263.21 378.97 288.63 381.29 314.04 380.06 C 336.68 378.90 359.16 375.87 381.79 374.61 C 381.69 378.18 381.85 381.75 381.66 385.31 C 394.12 390.69 408.69 390.22 421.25 385.39 C 421.16 381.77 421.28 378.14 421.05 374.53 C 432.04 375.40 443.03 376.26 454.02 377.17 C 463.99 378.22 473.96 379.29 483.98 379.78 C 511.03 381.56 538.15 379.22 564.96 375.68 C 565.11 319.04 564.94 262.40 565.05 205.76 C 561.79 204.74 558.48 203.95 555.19 203.05 C 555.19 254.33 555.22 305.61 555.18 356.89 C 548.46 361.04 540.65 362.88 532.98 364.35 C 516.49 367.02 499.55 367.04 483.06 364.41 C 465.74 361.78 448.73 356.17 431.04 356.65 C 421.14 356.89 410.49 360.10 404.27 368.29 C 402.44 368.27 400.62 368.26 398.80 368.26 C 392.62 359.99 381.87 356.89 371.97 356.65 C 353.64 356.21 336.06 362.20 318.07 364.73 C 302.29 367.01 286.13 366.92 270.39 364.38 C 262.67 362.90 254.79 361.09 248.04 356.90 C 248.00 305.59 248.05 254.29 248.03 202.99 C 244.65 203.88 241.28 204.79 237.91 205.69 M 570.41 232.37 C 570.45 241.70 570.30 251.03 570.49 260.36 C 575.38 260.29 580.27 260.35 585.16 260.32 C 585.20 251.04 585.09 241.76 585.22 232.49 C 580.29 232.20 575.34 232.43 570.41 232.37 M 217.78 232.37 C 217.77 241.69 217.77 251.00 217.78 260.32 C 222.69 260.33 227.60 260.33 232.51 260.32 C 232.53 251.00 232.52 241.69 232.52 232.37 C 227.60 232.36 222.69 232.36 217.78 232.37 M 217.78 315.09 C 217.77 324.40 217.77 333.72 217.78 343.04 C 222.64 343.08 227.50 342.97 232.37 343.11 C 232.77 333.81 232.34 324.49 232.58 315.18 C 227.65 314.97 222.71 315.13 217.78 315.09 M 570.38 315.13 C 570.42 324.40 570.44 333.68 570.37 342.95 C 575.30 343.15 580.23 343.00 585.16 343.04 C 585.17 333.72 585.17 324.40 585.16 315.09 C 580.23 315.10 575.30 315.03 570.38 315.13 Z" />
<path fill="#000000" opacity="1.00" d=" M 479.57 213.62 C 486.81 211.95 494.88 216.63 496.83 223.84 C 499.00 230.92 494.99 239.19 488.05 241.80 C 481.48 244.69 472.94 241.79 469.59 235.42 C 467.44 231.09 467.40 225.79 469.41 221.40 C 471.34 217.41 475.31 214.61 479.57 213.62 M 480.38 215.45 C 474.85 217.75 473.99 224.80 474.35 230.06 C 474.53 234.65 476.75 240.67 482.06 241.08 C 486.49 241.57 489.66 237.44 490.30 233.46 C 491.11 228.51 491.26 222.89 488.43 218.52 C 486.81 215.82 483.38 214.55 480.38 215.45 Z" />
<path fill="#000000" opacity="1.00" d=" M 272.09 214.33 C 277.46 214.07 282.85 214.26 288.23 214.17 C 288.23 217.11 282.84 214.50 283.59 218.00 C 285.69 223.64 288.27 229.10 290.65 234.62 C 290.86 234.72 291.27 234.92 291.48 235.02 C 293.40 229.59 296.65 224.63 297.94 219.01 C 298.64 216.44 295.74 215.92 293.98 215.46 C 293.01 215.15 293.86 213.58 294.81 214.14 C 298.54 214.26 302.28 214.17 306.01 214.20 C 307.31 214.53 306.00 215.97 305.20 215.74 C 303.35 216.14 301.60 217.21 300.88 219.03 C 297.10 226.95 293.56 234.99 289.76 242.90 C 289.40 242.86 288.68 242.77 288.32 242.73 C 285.08 235.07 281.73 227.45 278.14 219.95 C 277.36 218.52 276.60 216.73 274.90 216.21 C 273.90 215.65 272.07 215.89 272.09 214.33 Z" />
<path fill="#000000" opacity="1.00" d=" M 309.35 213.95 C 318.18 214.00 327.02 214.01 335.86 214.24 C 336.03 216.61 336.18 218.99 336.28 221.37 C 334.27 222.05 333.89 219.41 332.66 218.45 C 329.75 214.54 324.45 215.94 320.30 215.81 C 320.09 219.29 320.06 222.78 320.10 226.26 C 323.66 226.70 327.69 225.33 328.36 221.40 C 328.68 221.36 329.33 221.29 329.66 221.25 C 329.45 225.36 329.52 229.46 329.53 233.57 C 327.45 233.84 327.85 231.25 327.07 230.02 C 325.56 227.72 322.44 227.90 320.03 227.96 C 320.51 231.83 318.89 236.40 321.19 239.80 C 323.88 240.97 327.07 240.33 329.96 240.41 C 333.70 240.44 335.34 236.49 337.12 233.84 C 337.50 233.94 338.26 234.13 338.64 234.23 C 338.71 236.78 338.57 239.33 338.70 241.88 C 336.88 242.47 334.96 242.24 333.09 242.25 C 325.00 242.09 316.91 241.98 308.82 242.10 C 308.84 239.09 313.20 241.46 313.90 239.04 C 315.06 232.11 314.41 225.01 314.34 218.01 C 314.56 214.55 309.06 216.98 309.35 213.95 Z" />
<path fill="#000000" opacity="1.00" d=" M 343.35 214.25 C 353.21 214.24 363.07 214.23 372.93 214.13 C 373.10 217.10 373.09 220.08 372.93 223.06 C 370.71 223.20 370.75 220.59 369.66 219.29 C 367.95 216.25 364.17 215.76 361.03 215.90 C 361.03 223.27 360.79 230.64 361.13 238.00 C 361.25 241.26 366.04 239.21 366.60 242.07 C 360.99 242.14 355.37 241.96 349.76 242.19 C 349.25 239.88 351.95 240.83 353.16 240.20 C 354.86 240.12 355.51 238.49 355.34 237.00 C 355.41 229.96 355.59 222.92 355.24 215.89 C 352.17 215.69 348.74 216.18 346.95 219.00 C 345.74 220.07 345.41 222.78 343.48 222.54 C 343.06 219.79 343.34 217.01 343.35 214.25 Z" />
<path fill="#000000" opacity="1.00" d=" M 426.56 213.96 C 429.61 214.04 432.67 213.91 435.70 214.31 C 442.19 220.98 448.79 227.61 454.82 234.72 C 454.85 229.10 455.47 223.33 454.30 217.80 C 453.76 214.79 448.84 217.14 448.82 213.93 C 453.55 214.34 458.32 213.82 463.03 214.35 C 461.80 216.49 457.75 215.74 457.41 218.98 C 456.58 226.76 457.00 234.69 457.21 242.53 C 455.50 243.73 454.52 241.34 453.38 240.53 C 447.15 234.03 440.95 227.49 434.64 221.06 C 435.29 226.82 434.18 232.80 435.69 238.42 C 436.51 240.93 440.69 239.49 440.80 242.11 C 436.28 242.04 431.77 242.12 427.26 242.07 C 427.74 240.06 430.24 240.63 431.56 239.53 C 433.11 238.55 432.61 236.46 432.80 234.93 C 432.75 230.25 432.95 225.56 432.61 220.89 C 432.53 217.99 429.79 216.20 427.31 215.38 C 427.12 215.02 426.75 214.31 426.56 213.96 Z" />
<path fill="#000000" opacity="1.00" d=" M 500.43 215.29 C 500.54 215.00 500.75 214.40 500.86 214.10 C 505.93 214.41 511.01 214.05 516.08 214.20 C 516.19 214.49 516.42 215.06 516.53 215.35 C 514.85 215.83 511.61 215.30 511.81 217.91 C 514.17 223.86 516.61 229.85 519.52 235.56 C 521.46 229.60 525.54 224.24 526.22 217.96 C 526.20 215.14 521.67 216.91 521.81 214.15 C 526.17 214.26 530.53 214.12 534.90 214.27 C 534.95 215.87 533.15 215.66 532.15 216.18 C 530.76 216.58 529.74 217.76 529.15 219.03 C 525.35 226.97 521.83 235.05 517.97 242.97 C 517.61 242.86 516.87 242.64 516.51 242.53 C 512.98 234.43 509.61 226.23 505.54 218.38 C 504.62 216.33 502.34 215.89 500.43 215.29 Z" />
<path fill="#000000" opacity="1.00" d=" M 276.19 258.35 C 286.01 258.64 295.83 258.32 305.65 258.38 C 305.66 261.18 305.78 263.99 305.66 266.79 C 303.99 268.36 303.50 265.22 302.75 264.27 C 301.24 260.74 297.15 259.95 293.72 260.08 C 293.78 267.71 293.26 275.39 293.98 282.98 C 294.75 285.52 299.33 283.42 299.07 286.37 C 293.58 286.28 288.09 286.24 282.59 286.40 L 282.56 285.02 C 284.38 284.56 288.01 284.88 287.95 282.12 C 288.13 274.78 288.25 267.42 287.89 260.09 C 285.24 260.14 282.21 260.10 280.37 262.36 C 278.74 263.67 278.42 266.37 276.27 267.00 C 275.73 264.15 275.83 261.21 276.19 258.35 Z" />
<path fill="#000000" opacity="1.00" d=" M 310.96 259.53 C 310.13 259.27 310.81 257.59 311.77 258.22 C 320.09 258.22 328.43 258.24 336.75 258.47 C 337.91 260.56 337.19 263.43 337.46 265.81 C 335.40 265.86 334.99 263.43 333.65 262.35 C 330.63 258.85 325.51 260.07 321.47 260.24 C 321.45 263.67 321.32 267.09 321.39 270.52 C 323.80 270.43 326.63 270.49 328.38 268.50 C 329.04 267.58 329.23 264.33 330.96 265.89 C 330.63 269.89 330.93 273.91 330.70 277.91 C 328.48 278.03 329.29 275.16 328.15 273.97 C 326.52 271.95 323.64 272.13 321.30 272.20 C 321.89 276.14 319.86 281.20 322.88 284.36 C 327.16 284.60 333.06 286.24 335.89 281.94 C 337.32 280.68 337.48 277.77 339.83 277.97 C 339.72 280.74 340.45 283.82 339.52 286.40 C 329.75 286.61 319.97 286.09 310.19 286.34 C 309.75 283.24 314.76 285.85 315.22 283.13 C 316.31 276.15 315.72 269.00 315.59 261.97 C 315.26 259.74 312.54 260.13 310.96 259.53 Z" />
<path fill="#000000" opacity="1.00" d=" M 351.17 259.14 C 354.92 256.76 360.02 257.10 363.74 259.38 C 364.27 258.41 367.09 256.83 366.79 259.08 C 366.48 261.69 366.58 264.33 366.92 266.94 C 364.58 267.58 364.57 264.72 363.59 263.36 C 361.84 258.98 354.72 258.13 352.17 262.11 C 350.64 264.88 353.38 267.51 355.92 268.14 C 359.64 269.69 363.96 270.20 367.04 272.98 C 370.61 276.38 369.66 282.92 365.41 285.33 C 361.07 288.29 355.60 287.07 351.10 285.20 C 349.93 285.98 348.68 286.28 347.35 286.09 C 347.80 282.97 347.49 279.82 347.78 276.70 C 350.11 276.70 350.16 279.37 351.19 280.86 C 353.19 285.26 360.03 286.91 363.59 283.53 C 365.73 281.60 364.95 277.84 362.43 276.62 C 358.63 274.60 353.98 274.37 350.58 271.55 C 346.64 268.59 346.97 261.72 351.17 259.14 Z" />
<path fill="#000000" opacity="1.00" d=" M 424.14 258.36 C 433.97 258.63 443.81 258.31 453.64 258.39 C 453.66 261.22 453.76 264.05 453.65 266.88 C 453.29 266.94 452.58 267.08 452.23 267.15 C 451.12 265.21 450.38 262.90 448.49 261.56 C 446.54 260.10 443.98 260.25 441.68 260.08 C 441.76 267.70 441.26 275.36 441.93 282.94 C 442.69 285.51 447.19 283.43 447.09 286.36 C 441.58 286.30 436.08 286.23 430.58 286.41 L 430.50 285.02 C 432.33 284.55 435.97 284.90 435.93 282.12 C 436.11 274.78 436.21 267.43 435.87 260.10 C 433.23 260.15 430.20 260.09 428.36 262.35 C 426.72 263.67 426.41 266.33 424.28 267.01 C 423.67 264.17 423.86 261.23 424.14 258.36 Z" />
<path fill="#000000" opacity="1.00" d=" M 469.55 259.61 C 469.97 258.31 471.45 256.75 472.72 258.24 C 476.68 266.40 479.44 275.13 483.77 283.11 C 484.47 285.34 488.54 284.00 488.21 286.53 C 483.10 286.36 477.99 286.36 472.88 286.46 C 472.57 283.98 476.08 285.66 477.02 283.98 C 477.17 281.21 475.53 278.76 474.72 276.19 C 471.26 275.85 467.77 275.95 464.31 276.14 C 463.43 278.60 462.21 281.04 462.28 283.72 C 463.46 285.29 466.92 283.94 466.66 286.45 C 462.48 286.33 458.30 286.36 454.13 286.42 C 454.03 284.05 457.46 285.07 458.36 283.28 C 462.96 275.83 465.29 267.25 469.55 259.61 M 465.19 274.15 C 468.04 274.13 470.89 274.12 473.75 274.13 C 472.39 270.85 470.98 267.60 469.68 264.30 C 467.76 267.36 466.43 270.77 465.19 274.15 Z" />
<path fill="#000000" opacity="1.00" d=" M 490.66 258.47 C 494.91 258.26 499.18 258.45 503.45 258.43 C 506.53 264.93 509.46 271.50 512.44 278.05 C 515.43 271.51 518.31 264.90 521.82 258.61 C 525.68 258.40 529.61 258.09 533.46 258.59 C 533.38 258.85 533.22 259.35 533.15 259.61 C 531.17 259.95 528.34 260.46 528.32 263.04 C 528.18 269.33 527.92 275.67 528.51 281.94 C 528.66 284.46 531.17 285.19 533.31 285.15 L 533.27 286.47 C 528.17 286.41 523.08 286.40 517.99 286.38 L 517.92 285.05 C 519.65 284.83 522.32 284.98 522.58 282.63 C 522.92 275.40 522.63 268.14 522.73 260.90 C 518.57 269.16 515.04 277.83 510.83 286.00 C 506.07 277.99 503.03 268.98 498.37 260.91 C 498.38 267.45 498.30 274.01 498.64 280.54 C 498.83 283.40 501.54 285.14 504.21 285.19 L 504.16 286.43 C 499.68 286.43 495.19 286.23 490.71 286.40 C 490.57 283.56 495.80 285.22 495.90 282.05 C 496.56 275.71 496.28 269.27 496.09 262.91 C 496.03 260.15 492.84 260.10 490.86 259.79 C 490.81 259.46 490.71 258.80 490.66 258.47 Z" />
<path fill="#000000" opacity="1.00" d=" M 288.97 302.49 C 297.73 302.46 306.50 302.60 315.26 302.69 C 315.65 305.08 315.66 307.50 315.78 309.92 C 313.76 310.40 313.32 307.96 312.11 306.89 C 309.12 303.17 303.81 304.18 299.67 304.60 C 299.70 307.99 299.55 311.38 299.58 314.77 C 302.82 315.00 307.20 314.24 307.56 310.27 C 307.96 310.12 308.77 309.83 309.18 309.68 C 308.98 313.81 308.97 317.95 309.11 322.09 C 306.64 322.45 307.49 319.64 306.47 318.35 C 304.87 316.26 301.90 316.36 299.54 316.49 C 300.14 320.44 298.03 325.69 301.26 328.71 C 305.55 328.80 311.40 330.51 314.19 326.14 C 315.61 325.03 315.82 321.31 318.22 322.66 C 318.07 325.35 318.35 328.08 317.92 330.76 C 308.09 330.80 298.27 330.42 288.45 330.61 C 287.99 327.60 293.51 330.12 293.56 326.99 C 294.42 320.37 293.94 313.65 293.89 306.99 C 294.12 304.19 290.84 304.16 288.92 303.85 L 288.97 302.49 Z" />
<path fill="#000000" opacity="1.00" d=" M 323.34 302.49 C 326.43 302.82 329.90 301.97 332.76 303.22 C 339.15 309.74 345.35 316.45 351.63 323.08 C 351.23 317.40 352.34 311.51 350.80 305.98 C 350.09 303.41 345.17 305.51 345.58 302.44 C 350.12 302.70 354.67 302.68 359.22 302.59 L 359.35 303.78 C 356.53 303.95 353.76 305.99 353.76 309.01 C 353.56 316.13 353.49 323.26 353.82 330.38 C 353.80 331.43 352.67 331.78 352.02 331.02 C 344.98 324.03 338.36 316.63 331.28 309.69 C 331.79 315.08 331.15 320.55 331.98 325.92 C 332.41 328.60 335.53 328.93 337.64 329.58 C 337.48 329.84 337.17 330.36 337.01 330.62 C 332.71 330.64 328.40 330.57 324.10 330.67 C 324.03 328.05 328.42 329.48 329.08 327.00 C 329.81 321.40 329.37 315.68 329.31 310.04 C 329.53 306.65 326.38 304.67 323.59 303.74 L 323.34 302.49 Z" />
<path fill="#000000" opacity="1.00" d=" M 423.29 310.99 C 423.46 308.20 422.87 305.32 423.66 302.61 C 433.44 303.06 443.23 302.52 453.01 302.74 C 452.97 305.54 453.12 308.35 452.93 311.15 L 451.80 311.77 C 450.63 309.81 449.85 307.50 448.05 306.01 C 446.06 304.43 443.39 304.49 441.00 304.43 C 441.01 311.65 440.84 318.88 441.06 326.10 C 440.95 328.85 444.17 328.94 446.11 329.21 C 446.20 329.54 446.38 330.19 446.48 330.52 C 441.02 330.75 435.55 330.45 430.10 330.72 C 429.11 328.17 433.49 329.27 434.92 328.14 C 435.84 320.30 435.33 312.34 435.25 304.46 C 432.31 304.29 429.01 304.60 427.17 307.22 C 425.77 308.40 425.54 311.34 423.29 310.99 Z" />
<path fill="#000000" opacity="1.00" d=" M 454.71 302.67 C 459.86 302.84 465.01 302.68 470.15 302.66 C 470.32 302.91 470.65 303.40 470.82 303.65 C 469.20 303.98 467.62 304.42 466.05 304.94 C 466.08 305.49 466.14 306.59 466.17 307.14 C 468.45 312.84 471.08 318.40 473.42 324.08 C 475.24 320.81 476.50 317.27 478.09 313.88 C 479.15 311.37 480.68 308.84 480.33 306.01 C 479.73 303.66 475.69 305.35 475.96 302.65 C 480.09 302.71 484.23 302.82 488.36 302.64 C 488.52 302.96 488.83 303.61 488.99 303.93 C 486.79 304.33 484.36 305.12 483.41 307.36 C 479.58 315.28 476.08 323.37 472.21 331.28 C 471.36 331.87 470.78 331.66 470.48 330.65 C 467.39 323.38 464.19 316.17 460.82 309.03 C 460.05 307.57 459.40 305.90 457.95 304.99 C 456.89 304.07 454.13 304.84 454.71 302.67 Z" />
<path fill="#000000" opacity="1.00" d=" M 491.29 302.63 C 495.56 302.73 499.84 302.73 504.11 302.76 C 506.61 308.16 509.08 313.58 511.53 319.02 C 512.10 320.02 512.26 321.48 513.44 322.01 C 516.04 315.35 519.02 308.80 522.74 302.70 C 526.49 302.80 530.24 302.56 534.00 302.67 C 533.98 305.16 529.89 303.67 529.25 306.12 C 528.36 310.30 529.01 314.66 528.81 318.91 C 528.97 321.95 528.36 325.32 529.87 328.11 C 530.69 329.98 534.32 328.19 534.03 330.72 C 528.91 330.60 523.70 330.93 518.65 330.44 C 518.56 330.20 518.38 329.72 518.29 329.48 C 520.27 329.20 523.32 329.16 523.27 326.41 C 523.47 319.31 523.25 312.20 523.39 305.10 C 519.53 313.42 515.32 321.59 511.98 330.14 C 511.67 329.97 511.03 329.64 510.71 329.47 C 506.76 321.39 503.25 313.06 499.03 305.14 C 498.94 311.80 498.91 318.49 499.32 325.14 C 499.60 327.88 502.23 329.26 504.72 329.52 C 504.77 329.82 504.88 330.42 504.94 330.72 C 500.36 330.70 495.80 330.56 491.23 330.62 C 491.24 327.82 496.24 329.54 496.47 326.50 C 497.12 319.85 497.07 313.03 496.53 306.38 C 496.09 303.31 490.91 305.74 491.29 302.63 Z" />
<path fill="#000000" opacity="1.00" d=" M 236.46 603.47 C 291.35 551.02 346.27 498.61 401.09 446.09 C 492.18 533.02 583.03 620.20 674.10 707.14 C 675.20 708.28 676.26 709.48 677.33 710.67 C 651.47 756.01 622.33 799.49 589.72 840.25 C 589.32 839.94 588.50 839.32 588.09 839.01 C 525.74 778.81 463.49 718.49 401.13 658.30 C 350.72 707.17 300.23 755.97 249.75 804.78 C 237.57 816.41 225.74 828.43 213.32 839.81 C 205.26 830.10 197.78 819.93 190.22 809.84 C 166.72 777.76 144.93 744.41 125.52 709.70 C 162.31 674.10 199.52 638.92 236.46 603.47 Z" />
</g>
<g id="ffffffff">
<path fill="#ffffff" opacity="1.00" d=" M 334.44 185.62 C 348.07 182.82 361.91 179.54 375.91 180.82 C 384.55 181.65 393.54 185.00 398.84 192.20 C 398.85 248.32 398.82 304.44 398.86 360.56 C 391.14 354.07 380.87 351.53 370.96 351.45 C 354.31 351.10 338.28 356.16 322.00 358.81 C 307.36 361.52 292.34 361.72 277.57 360.17 C 269.31 359.14 260.96 357.59 253.41 353.96 C 253.40 297.15 253.40 240.34 253.41 183.53 C 266.58 188.84 280.96 190.07 295.03 190.24 C 308.31 190.43 321.49 188.38 334.44 185.62 M 272.09 214.33 C 272.07 215.89 273.90 215.65 274.90 216.21 C 276.60 216.73 277.36 218.52 278.14 219.95 C 281.73 227.45 285.08 235.07 288.32 242.73 C 288.68 242.77 289.40 242.86 289.76 242.90 C 293.56 234.99 297.10 226.95 300.88 219.03 C 301.60 217.21 303.35 216.14 305.20 215.74 C 306.00 215.97 307.31 214.53 306.01 214.20 C 302.28 214.17 298.54 214.26 294.81 214.14 C 293.86 213.58 293.01 215.15 293.98 215.46 C 295.74 215.92 298.64 216.44 297.94 219.01 C 296.65 224.63 293.40 229.59 291.48 235.02 C 291.27 234.92 290.86 234.72 290.65 234.62 C 288.27 229.10 285.69 223.64 283.59 218.00 C 282.84 214.50 288.23 217.11 288.23 214.17 C 282.85 214.26 277.46 214.07 272.09 214.33 M 309.35 213.95 C 309.06 216.98 314.56 214.55 314.34 218.01 C 314.41 225.01 315.06 232.11 313.90 239.04 C 313.20 241.46 308.84 239.09 308.82 242.10 C 316.91 241.98 325.00 242.09 333.09 242.25 C 334.96 242.24 336.88 242.47 338.70 241.88 C 338.57 239.33 338.71 236.78 338.64 234.23 C 338.26 234.13 337.50 233.94 337.12 233.84 C 335.34 236.49 333.70 240.44 329.96 240.41 C 327.07 240.33 323.88 240.97 321.19 239.80 C 318.89 236.40 320.51 231.83 320.03 227.96 C 322.44 227.90 325.56 227.72 327.07 230.02 C 327.85 231.25 327.45 233.84 329.53 233.57 C 329.52 229.46 329.45 225.36 329.66 221.25 C 329.33 221.29 328.68 221.36 328.36 221.40 C 327.69 225.33 323.66 226.70 320.10 226.26 C 320.06 222.78 320.09 219.29 320.30 215.81 C 324.45 215.94 329.75 214.54 332.66 218.45 C 333.89 219.41 334.27 222.05 336.28 221.37 C 336.18 218.99 336.03 216.61 335.86 214.24 C 327.02 214.01 318.18 214.00 309.35 213.95 M 343.35 214.25 C 343.34 217.01 343.06 219.79 343.48 222.54 C 345.41 222.78 345.74 220.07 346.95 219.00 C 348.74 216.18 352.17 215.69 355.24 215.89 C 355.59 222.92 355.41 229.96 355.34 237.00 C 355.51 238.49 354.86 240.12 353.16 240.20 C 351.95 240.83 349.25 239.88 349.76 242.19 C 355.37 241.96 360.99 242.14 366.60 242.07 C 366.04 239.21 361.25 241.26 361.13 238.00 C 360.79 230.64 361.03 223.27 361.03 215.90 C 364.17 215.76 367.95 216.25 369.66 219.29 C 370.75 220.59 370.71 223.20 372.93 223.06 C 373.09 220.08 373.10 217.10 372.93 214.13 C 363.07 214.23 353.21 214.24 343.35 214.25 M 276.19 258.35 C 275.83 261.21 275.73 264.15 276.27 267.00 C 278.42 266.37 278.74 263.67 280.37 262.36 C 282.21 260.10 285.24 260.14 287.89 260.09 C 288.25 267.42 288.13 274.78 287.95 282.12 C 288.01 284.88 284.38 284.56 282.56 285.02 L 282.59 286.40 C 288.09 286.24 293.58 286.28 299.07 286.37 C 299.33 283.42 294.75 285.52 293.98 282.98 C 293.26 275.39 293.78 267.71 293.72 260.08 C 297.15 259.95 301.24 260.74 302.75 264.27 C 303.50 265.22 303.99 268.36 305.66 266.79 C 305.78 263.99 305.66 261.18 305.65 258.38 C 295.83 258.32 286.01 258.64 276.19 258.35 M 310.96 259.53 C 312.54 260.13 315.26 259.74 315.59 261.97 C 315.72 269.00 316.31 276.15 315.22 283.13 C 314.76 285.85 309.75 283.24 310.19 286.34 C 319.97 286.09 329.75 286.61 339.52 286.40 C 340.45 283.82 339.72 280.74 339.83 277.97 C 337.48 277.77 337.32 280.68 335.89 281.94 C 333.06 286.24 327.16 284.60 322.88 284.36 C 319.86 281.20 321.89 276.14 321.30 272.20 C 323.64 272.13 326.52 271.95 328.15 273.97 C 329.29 275.16 328.48 278.03 330.70 277.91 C 330.93 273.91 330.63 269.89 330.96 265.89 C 329.23 264.33 329.04 267.58 328.38 268.50 C 326.63 270.49 323.80 270.43 321.39 270.52 C 321.32 267.09 321.45 263.67 321.47 260.24 C 325.51 260.07 330.63 258.85 333.65 262.35 C 334.99 263.43 335.40 265.86 337.46 265.81 C 337.19 263.43 337.91 260.56 336.75 258.47 C 328.43 258.24 320.09 258.22 311.77 258.22 C 310.81 257.59 310.13 259.27 310.96 259.53 M 351.17 259.14 C 346.97 261.72 346.64 268.59 350.58 271.55 C 353.98 274.37 358.63 274.60 362.43 276.62 C 364.95 277.84 365.73 281.60 363.59 283.53 C 360.03 286.91 353.19 285.26 351.19 280.86 C 350.16 279.37 350.11 276.70 347.78 276.70 C 347.49 279.82 347.80 282.97 347.35 286.09 C 348.68 286.28 349.93 285.98 351.10 285.20 C 355.60 287.07 361.07 288.29 365.41 285.33 C 369.66 282.92 370.61 276.38 367.04 272.98 C 363.96 270.20 359.64 269.69 355.92 268.14 C 353.38 267.51 350.64 264.88 352.17 262.11 C 354.72 258.13 361.84 258.98 363.59 263.36 C 364.57 264.72 364.58 267.58 366.92 266.94 C 366.58 264.33 366.48 261.69 366.79 259.08 C 367.09 256.83 364.27 258.41 363.74 259.38 C 360.02 257.10 354.92 256.76 351.17 259.14 M 288.97 302.49 L 288.92 303.85 C 290.84 304.16 294.12 304.19 293.89 306.99 C 293.94 313.65 294.42 320.37 293.56 326.99 C 293.51 330.12 287.99 327.60 288.45 330.61 C 298.27 330.42 308.09 330.80 317.92 330.76 C 318.35 328.08 318.07 325.35 318.22 322.66 C 315.82 321.31 315.61 325.03 314.19 326.14 C 311.40 330.51 305.55 328.80 301.26 328.71 C 298.03 325.69 300.14 320.44 299.54 316.49 C 301.90 316.36 304.87 316.26 306.47 318.35 C 307.49 319.64 306.64 322.45 309.11 322.09 C 308.97 317.95 308.98 313.81 309.18 309.68 C 308.77 309.83 307.96 310.12 307.56 310.27 C 307.20 314.24 302.82 315.00 299.58 314.77 C 299.55 311.38 299.70 307.99 299.67 304.60 C 303.81 304.18 309.12 303.17 312.11 306.89 C 313.32 307.96 313.76 310.40 315.78 309.92 C 315.66 307.50 315.65 305.08 315.26 302.69 C 306.50 302.60 297.73 302.46 288.97 302.49 M 323.34 302.49 L 323.59 303.74 C 326.38 304.67 329.53 306.65 329.31 310.04 C 329.37 315.68 329.81 321.40 329.08 327.00 C 328.42 329.48 324.03 328.05 324.10 330.67 C 328.40 330.57 332.71 330.64 337.01 330.62 C 337.17 330.36 337.48 329.84 337.64 329.58 C 335.53 328.93 332.41 328.60 331.98 325.92 C 331.15 320.55 331.79 315.08 331.28 309.69 C 338.36 316.63 344.98 324.03 352.02 331.02 C 352.67 331.78 353.80 331.43 353.82 330.38 C 353.49 323.26 353.56 316.13 353.76 309.01 C 353.76 305.99 356.53 303.95 359.35 303.78 L 359.22 302.59 C 354.67 302.68 350.12 302.70 345.58 302.44 C 345.17 305.51 350.09 303.41 350.80 305.98 C 352.34 311.51 351.23 317.40 351.63 323.08 C 345.35 316.45 339.15 309.74 332.76 303.22 C 329.90 301.97 326.43 302.82 323.34 302.49 Z" />
<path fill="#ffffff" opacity="1.00" d=" M 404.23 192.23 C 410.78 183.33 422.50 180.40 433.03 180.47 C 455.03 180.60 475.95 188.95 497.88 189.91 C 515.27 190.63 533.33 190.02 549.68 183.45 C 549.91 240.27 549.70 297.10 549.78 353.93 C 542.20 357.62 533.78 359.14 525.48 360.18 C 510.50 361.75 495.28 361.49 480.46 358.69 C 461.47 355.53 442.37 349.12 422.92 352.29 C 416.10 353.26 409.90 356.42 404.24 360.19 C 404.22 304.20 404.23 248.22 404.23 192.23 M 479.57 213.62 C 475.31 214.61 471.34 217.41 469.41 221.40 C 467.40 225.79 467.44 231.09 469.59 235.42 C 472.94 241.79 481.48 244.69 488.05 241.80 C 494.99 239.19 499.00 230.92 496.83 223.84 C 494.88 216.63 486.81 211.95 479.57 213.62 M 426.56 213.96 C 426.75 214.31 427.12 215.02 427.31 215.38 C 429.79 216.20 432.53 217.99 432.61 220.89 C 432.95 225.56 432.75 230.25 432.80 234.93 C 432.61 236.46 433.11 238.55 431.56 239.53 C 430.24 240.63 427.74 240.06 427.26 242.07 C 431.77 242.12 436.28 242.04 440.80 242.11 C 440.69 239.49 436.51 240.93 435.69 238.42 C 434.18 232.80 435.29 226.82 434.64 221.06 C 440.95 227.49 447.15 234.03 453.38 240.53 C 454.52 241.34 455.50 243.73 457.21 242.53 C 457.00 234.69 456.58 226.76 457.41 218.98 C 457.75 215.74 461.80 216.49 463.03 214.35 C 458.32 213.82 453.55 214.34 448.82 213.93 C 448.84 217.14 453.76 214.79 454.30 217.80 C 455.47 223.33 454.85 229.10 454.82 234.72 C 448.79 227.61 442.19 220.98 435.70 214.31 C 432.67 213.91 429.61 214.04 426.56 213.96 M 500.43 215.29 C 502.34 215.89 504.62 216.33 505.54 218.38 C 509.61 226.23 512.98 234.43 516.51 242.53 C 516.87 242.64 517.61 242.86 517.97 242.97 C 521.83 235.05 525.35 226.97 529.15 219.03 C 529.74 217.76 530.76 216.58 532.15 216.18 C 533.15 215.66 534.95 215.87 534.90 214.27 C 530.53 214.12 526.17 214.26 521.81 214.15 C 521.67 216.91 526.20 215.14 526.22 217.96 C 525.54 224.24 521.46 229.60 519.52 235.56 C 516.61 229.85 514.17 223.86 511.81 217.91 C 511.61 215.30 514.85 215.83 516.53 215.35 C 516.42 215.06 516.19 214.49 516.08 214.20 C 511.01 214.05 505.93 214.41 500.86 214.10 C 500.75 214.40 500.54 215.00 500.43 215.29 M 424.14 258.36 C 423.86 261.23 423.67 264.17 424.28 267.01 C 426.41 266.33 426.72 263.67 428.36 262.35 C 430.20 260.09 433.23 260.15 435.87 260.10 C 436.21 267.43 436.11 274.78 435.93 282.12 C 435.97 284.90 432.33 284.55 430.50 285.02 L 430.58 286.41 C 436.08 286.23 441.58 286.30 447.09 286.36 C 447.19 283.43 442.69 285.51 441.93 282.94 C 441.26 275.36 441.76 267.70 441.68 260.08 C 443.98 260.25 446.54 260.10 448.49 261.56 C 450.38 262.90 451.12 265.21 452.23 267.15 C 452.58 267.08 453.29 266.94 453.65 266.88 C 453.76 264.05 453.66 261.22 453.64 258.39 C 443.81 258.31 433.97 258.63 424.14 258.36 M 469.55 259.61 C 465.29 267.25 462.96 275.83 458.36 283.28 C 457.46 285.07 454.03 284.05 454.13 286.42 C 458.30 286.36 462.48 286.33 466.66 286.45 C 466.92 283.94 463.46 285.29 462.28 283.72 C 462.21 281.04 463.43 278.60 464.31 276.14 C 467.77 275.95 471.26 275.85 474.72 276.19 C 475.53 278.76 477.17 281.21 477.02 283.98 C 476.08 285.66 472.57 283.98 472.88 286.46 C 477.99 286.36 483.10 286.36 488.21 286.53 C 488.54 284.00 484.47 285.34 483.77 283.11 C 479.44 275.13 476.68 266.40 472.72 258.24 C 471.45 256.75 469.97 258.31 469.55 259.61 M 490.66 258.47 C 490.71 258.80 490.81 259.46 490.86 259.79 C 492.84 260.10 496.03 260.15 496.09 262.91 C 496.28 269.27 496.56 275.71 495.90 282.05 C 495.80 285.22 490.57 283.56 490.71 286.40 C 495.19 286.23 499.68 286.43 504.16 286.43 L 504.21 285.19 C 501.54 285.14 498.83 283.40 498.64 280.54 C 498.30 274.01 498.38 267.45 498.37 260.91 C 503.03 268.98 506.07 277.99 510.83 286.00 C 515.04 277.83 518.57 269.16 522.73 260.90 C 522.63 268.14 522.92 275.40 522.58 282.63 C 522.32 284.98 519.65 284.83 517.92 285.05 L 517.99 286.38 C 523.08 286.40 528.17 286.41 533.27 286.47 L 533.31 285.15 C 531.17 285.19 528.66 284.46 528.51 281.94 C 527.92 275.67 528.18 269.33 528.32 263.04 C 528.34 260.46 531.17 259.95 533.15 259.61 C 533.22 259.35 533.38 258.85 533.46 258.59 C 529.61 258.09 525.68 258.40 521.82 258.61 C 518.31 264.90 515.43 271.51 512.44 278.05 C 509.46 271.50 506.53 264.93 503.45 258.43 C 499.18 258.45 494.91 258.26 490.66 258.47 M 423.29 310.99 C 425.54 311.34 425.77 308.40 427.17 307.22 C 429.01 304.60 432.31 304.29 435.25 304.46 C 435.33 312.34 435.84 320.30 434.92 328.14 C 433.49 329.27 429.11 328.17 430.10 330.72 C 435.55 330.45 441.02 330.75 446.48 330.52 C 446.38 330.19 446.20 329.54 446.11 329.21 C 444.17 328.94 440.95 328.85 441.06 326.10 C 440.84 318.88 441.01 311.65 441.00 304.43 C 443.39 304.49 446.06 304.43 448.05 306.01 C 449.85 307.50 450.63 309.81 451.80 311.77 L 452.93 311.15 C 453.12 308.35 452.97 305.54 453.01 302.74 C 443.23 302.52 433.44 303.06 423.66 302.61 C 422.87 305.32 423.46 308.20 423.29 310.99 M 454.71 302.67 C 454.13 304.84 456.89 304.07 457.95 304.99 C 459.40 305.90 460.05 307.57 460.82 309.03 C 464.19 316.17 467.39 323.38 470.48 330.65 C 470.78 331.66 471.36 331.87 472.21 331.28 C 476.08 323.37 479.58 315.28 483.41 307.36 C 484.36 305.12 486.79 304.33 488.99 303.93 C 488.83 303.61 488.52 302.96 488.36 302.64 C 484.23 302.82 480.09 302.71 475.96 302.65 C 475.69 305.35 479.73 303.66 480.33 306.01 C 480.68 308.84 479.15 311.37 478.09 313.88 C 476.50 317.27 475.24 320.81 473.42 324.08 C 471.08 318.40 468.45 312.84 466.17 307.14 C 466.14 306.59 466.08 305.49 466.05 304.94 C 467.62 304.42 469.20 303.98 470.82 303.65 C 470.65 303.40 470.32 302.91 470.15 302.66 C 465.01 302.68 459.86 302.84 454.71 302.67 M 491.29 302.63 C 490.91 305.74 496.09 303.31 496.53 306.38 C 497.07 313.03 497.12 319.85 496.47 326.50 C 496.24 329.54 491.24 327.82 491.23 330.62 C 495.80 330.56 500.36 330.70 504.94 330.72 C 504.88 330.42 504.77 329.82 504.72 329.52 C 502.23 329.26 499.60 327.88 499.32 325.14 C 498.91 318.49 498.94 311.80 499.03 305.14 C 503.25 313.06 506.76 321.39 510.71 329.47 C 511.03 329.64 511.67 329.97 511.98 330.14 C 515.32 321.59 519.53 313.42 523.39 305.10 C 523.25 312.20 523.47 319.31 523.27 326.41 C 523.32 329.16 520.27 329.20 518.29 329.48 C 518.38 329.72 518.56 330.20 518.65 330.44 C 523.70 330.93 528.91 330.60 534.03 330.72 C 534.32 328.19 530.69 329.98 529.87 328.11 C 528.36 325.32 528.97 321.95 528.81 318.91 C 529.01 314.66 528.36 310.30 529.25 306.12 C 529.89 303.67 533.98 305.16 534.00 302.67 C 530.24 302.56 526.49 302.80 522.74 302.70 C 519.02 308.80 516.04 315.35 513.44 322.01 C 512.26 321.48 512.10 320.02 511.53 319.02 C 509.08 313.58 506.61 308.16 504.11 302.76 C 499.84 302.73 495.56 302.73 491.29 302.63 Z" />
<path fill="#ffffff" opacity="1.00" d=" M 237.91 205.69 C 241.28 204.79 244.65 203.88 248.03 202.99 C 248.05 254.29 248.00 305.59 248.04 356.90 C 254.79 361.09 262.67 362.90 270.39 364.38 C 286.13 366.92 302.29 367.01 318.07 364.73 C 336.06 362.20 353.64 356.21 371.97 356.65 C 381.87 356.89 392.62 359.99 398.80 368.26 C 400.62 368.26 402.44 368.27 404.27 368.29 C 410.49 360.10 421.14 356.89 431.04 356.65 C 448.73 356.17 465.74 361.78 483.06 364.41 C 499.55 367.04 516.49 367.02 532.98 364.35 C 540.65 362.88 548.46 361.04 555.18 356.89 C 555.22 305.61 555.19 254.33 555.19 203.05 C 558.48 203.95 561.79 204.74 565.05 205.76 C 564.94 262.40 565.11 319.04 564.96 375.68 C 538.15 379.22 511.03 381.56 483.98 379.78 C 473.96 379.29 463.99 378.22 454.02 377.17 C 443.03 376.26 432.04 375.40 421.05 374.53 C 421.28 378.14 421.16 381.77 421.25 385.39 C 408.69 390.22 394.12 390.69 381.66 385.31 C 381.85 381.75 381.69 378.18 381.79 374.61 C 359.16 375.87 336.68 378.90 314.04 380.06 C 288.63 381.29 263.21 378.97 238.03 375.71 C 237.73 319.04 237.98 262.36 237.91 205.69 Z" />
<path fill="#ffffff" opacity="1.00" d=" M 480.38 215.45 C 483.38 214.55 486.81 215.82 488.43 218.52 C 491.26 222.89 491.11 228.51 490.30 233.46 C 489.66 237.44 486.49 241.57 482.06 241.08 C 476.75 240.67 474.53 234.65 474.35 230.06 C 473.99 224.80 474.85 217.75 480.38 215.45 Z" />
<path fill="#ffffff" opacity="1.00" d=" M 570.41 232.37 C 575.34 232.43 580.29 232.20 585.22 232.49 C 585.09 241.76 585.20 251.04 585.16 260.32 C 580.27 260.35 575.38 260.29 570.49 260.36 C 570.30 251.03 570.45 241.70 570.41 232.37 Z" />
<path fill="#ffffff" opacity="1.00" d=" M 217.78 232.37 C 222.69 232.36 227.60 232.36 232.52 232.37 C 232.52 241.69 232.53 251.00 232.51 260.32 C 227.60 260.33 222.69 260.33 217.78 260.32 C 217.77 251.00 217.77 241.69 217.78 232.37 Z" />
<path fill="#ffffff" opacity="1.00" d=" M 465.19 274.15 C 466.43 270.77 467.76 267.36 469.68 264.30 C 470.98 267.60 472.39 270.85 473.75 274.13 C 470.89 274.12 468.04 274.13 465.19 274.15 Z" />
<path fill="#ffffff" opacity="1.00" d=" M 217.78 315.09 C 222.71 315.13 227.65 314.97 232.58 315.18 C 232.34 324.49 232.77 333.81 232.37 343.11 C 227.50 342.97 222.64 343.08 217.78 343.04 C 217.77 333.72 217.77 324.40 217.78 315.09 Z" />
<path fill="#ffffff" opacity="1.00" d=" M 570.38 315.13 C 575.30 315.03 580.23 315.10 585.16 315.09 C 585.17 324.40 585.17 333.72 585.16 343.04 C 580.23 343.00 575.30 343.15 570.37 342.95 C 570.44 333.68 570.42 324.40 570.38 315.13 Z" />
</g>
<g id="e87722ff">
<path fill="#e87722" opacity="1.00" d=" M 20.78 433.61 C 20.86 433.15 21.04 432.23 21.13 431.78 C 34.39 432.58 47.73 431.90 61.02 432.13 C 301.36 432.13 541.70 432.12 782.04 432.13 C 761.90 529.56 726.06 623.62 677.30 710.30 C 676.20 709.21 675.19 708.19 674.10 707.14 C 583.03 620.20 492.18 533.02 401.09 446.09 C 346.27 498.61 291.35 551.02 236.46 603.47 C 199.52 638.92 162.31 674.10 125.52 709.70 C 121.01 701.18 116.16 692.85 111.77 684.27 C 70.11 605.43 39.46 520.80 20.78 433.61 Z" />
<path fill="#e87722" opacity="1.00" d=" M 249.75 804.78 C 300.23 755.97 350.72 707.17 401.13 658.30 C 463.49 718.49 525.74 778.81 588.09 839.01 C 588.45 839.34 589.16 839.99 589.52 840.31 C 534.92 908.53 471.48 969.65 401.24 1021.62 C 382.31 1007.37 363.72 992.65 345.76 977.19 C 297.38 935.72 253.14 889.52 213.32 839.81 C 225.74 828.43 237.57 816.41 249.75 804.78 Z" />
</g>
</svg>
